<svg width="34" height="29" viewBox="0 0 34 29" fill="none" xmlns="http://www.w3.org/2000/svg">
<path d="M15.5714 4.92857C15.5714 2.91741 13.9397 1.28571 11.9286 1.28571H4.64286C2.6317 1.28571 1 2.91741 1 4.92857V12.2143C1 14.2254 2.6317 15.8571 4.64286 15.8571H8.89286C9.89844 15.8571 10.7143 16.673 10.7143 17.6786V18.2857C10.7143 20.9609 8.53237 23.1429 5.85714 23.1429H4.64286C3.97879 23.1429 3.42857 23.6931 3.42857 24.3571V26.7857C3.42857 27.4498 3.97879 28 4.64286 28H5.85714C11.2076 28 15.5714 23.6362 15.5714 18.2857V4.92857ZM32.5714 4.92857C32.5714 2.91741 30.9397 1.28571 28.9286 1.28571H21.6429C19.6317 1.28571 18 2.91741 18 4.92857V12.2143C18 14.2254 19.6317 15.8571 21.6429 15.8571H25.8929C26.8984 15.8571 27.7143 16.673 27.7143 17.6786V18.2857C27.7143 20.9609 25.5324 23.1429 22.8571 23.1429H21.6429C20.9788 23.1429 20.4286 23.6931 20.4286 24.3571V26.7857C20.4286 27.4498 20.9788 28 21.6429 28H22.8571C28.2076 28 32.5714 23.6362 32.5714 18.2857V4.92857Z" fill="#2B4074"/>
<path d="M16.0714 4.92857C16.0714 2.64127 14.2159 0.785713 11.9286 0.785713V1.78571C13.6636 1.78571 15.0714 3.19355 15.0714 4.92857H16.0714ZM11.9286 0.785713H4.64286V1.78571H11.9286V0.785713ZM4.64286 0.785713C2.35555 0.785713 0.5 2.64127 0.5 4.92857H1.5C1.5 3.19355 2.90784 1.78571 4.64286 1.78571V0.785713ZM0.5 4.92857V12.2143H1.5V4.92857H0.5ZM0.5 12.2143C0.5 14.5016 2.35555 16.3571 4.64286 16.3571V15.3571C2.90784 15.3571 1.5 13.9493 1.5 12.2143H0.5ZM4.64286 16.3571H8.89286V15.3571H4.64286V16.3571ZM8.89286 16.3571C9.6223 16.3571 10.2143 16.9491 10.2143 17.6786H11.2143C11.2143 16.3968 10.1746 15.3571 8.89286 15.3571V16.3571ZM10.2143 17.6786V18.2857H11.2143V17.6786H10.2143ZM10.2143 18.2857C10.2143 20.6848 8.25622 22.6429 5.85714 22.6429V23.6429C8.80851 23.6429 11.2143 21.2371 11.2143 18.2857H10.2143ZM5.85714 22.6429H4.64286V23.6429H5.85714V22.6429ZM4.64286 22.6429C3.70265 22.6429 2.92857 23.4169 2.92857 24.3571H3.92857C3.92857 23.9692 4.25494 23.6429 4.64286 23.6429V22.6429ZM2.92857 24.3571V26.7857H3.92857V24.3571H2.92857ZM2.92857 26.7857C2.92857 27.7259 3.70265 28.5 4.64286 28.5V27.5C4.25494 27.5 3.92857 27.1736 3.92857 26.7857H2.92857ZM4.64286 28.5H5.85714V27.5H4.64286V28.5ZM5.85714 28.5C11.4837 28.5 16.0714 23.9123 16.0714 18.2857H15.0714C15.0714 23.36 10.9314 27.5 5.85714 27.5V28.5ZM16.0714 18.2857V4.92857H15.0714V18.2857H16.0714ZM33.0714 4.92857C33.0714 2.64127 31.2159 0.785713 28.9286 0.785713V1.78571C30.6636 1.78571 32.0714 3.19355 32.0714 4.92857H33.0714ZM28.9286 0.785713H21.6429V1.78571H28.9286V0.785713ZM21.6429 0.785713C19.3556 0.785713 17.5 2.64127 17.5 4.92857H18.5C18.5 3.19355 19.9078 1.78571 21.6429 1.78571V0.785713ZM17.5 4.92857V12.2143H18.5V4.92857H17.5ZM17.5 12.2143C17.5 14.5016 19.3556 16.3571 21.6429 16.3571V15.3571C19.9078 15.3571 18.5 13.9493 18.5 12.2143H17.5ZM21.6429 16.3571H25.8929V15.3571H21.6429V16.3571ZM25.8929 16.3571C26.6223 16.3571 27.2143 16.9491 27.2143 17.6786H28.2143C28.2143 16.3968 27.1746 15.3571 25.8929 15.3571V16.3571ZM27.2143 17.6786V18.2857H28.2143V17.6786H27.2143ZM27.2143 18.2857C27.2143 20.6848 25.2562 22.6429 22.8571 22.6429V23.6429C25.8085 23.6429 28.2143 21.2371 28.2143 18.2857H27.2143ZM22.8571 22.6429H21.6429V23.6429H22.8571V22.6429ZM21.6429 22.6429C20.7027 22.6429 19.9286 23.4169 19.9286 24.3571H20.9286C20.9286 23.9692 21.2549 23.6429 21.6429 23.6429V22.6429ZM19.9286 24.3571V26.7857H20.9286V24.3571H19.9286ZM19.9286 26.7857C19.9286 27.7259 20.7027 28.5 21.6429 28.5V27.5C21.2549 27.5 20.9286 27.1736 20.9286 26.7857H19.9286ZM21.6429 28.5H22.8571V27.5H21.6429V28.5ZM22.8571 28.5C28.4837 28.5 33.0714 23.9123 33.0714 18.2857H32.0714C32.0714 23.36 27.9314 27.5 22.8571 27.5V28.5ZM33.0714 18.2857V4.92857H32.0714V18.2857H33.0714Z" fill="black"/>
</svg>
