<svg width="16" height="13" viewBox="0 0 16 13" fill="none" xmlns="http://www.w3.org/2000/svg">
<path d="M15.945 2.10868C15.3947 2.34584 14.7971 2.5166 14.1805 2.58301C14.8161 2.20354 15.2999 1.60589 15.5276 0.894392C14.9394 1.2454 14.2753 1.50153 13.5828 1.63435C13.0231 1.03669 12.2262 0.666713 11.344 0.666713C9.64586 0.666713 8.27979 2.04227 8.27979 3.73089C8.27979 3.96805 8.30825 4.20522 8.35568 4.4329C5.81327 4.30008 3.54597 3.0858 2.0376 1.22642C1.77197 1.68178 1.62019 2.20354 1.62019 2.77274C1.62019 3.83524 2.16092 4.77441 2.98626 5.32464C2.48347 5.30566 2.00914 5.16336 1.60121 4.93569C1.60121 4.94517 1.60121 4.96415 1.60121 4.97363C1.60121 6.46303 2.65423 7.69629 4.05825 7.98089C3.80211 8.04729 3.527 8.08524 3.25188 8.08524C3.05266 8.08524 2.86293 8.06627 2.6732 8.03781C3.06215 9.25209 4.19106 10.1343 5.53816 10.1628C4.48514 10.9881 3.1665 11.472 1.73403 11.472C1.47789 11.472 1.24072 11.4625 0.994071 11.434C2.35066 12.3068 3.96338 12.8096 5.69943 12.8096C11.3345 12.8096 14.4176 8.14216 14.4176 4.09138C14.4176 3.95857 14.4176 3.82575 14.4081 3.69294C15.0058 3.25656 15.5276 2.71582 15.945 2.10868Z" fill="white"/>
</svg>
